# xmcd
#
# Track frame offsets:
#	150
#	28650
#	82192
#	113068
#	182984
#	277785
#
# Disc length: 4102 seconds
#
# Revision: 1
# Processed by: cddbd v1.5.2PL0 Copyright (c) Steve Scherf et al.
# Submitted via: audiograbber 1.83.01
#
DISCID=4a100406
DTITLE=Little Feat - Rocky Mountain Jam
DYEAR=1900
DGENRE=Country Rock
TTITLE0=Marginal Creatures
TTITLE1=One Clear Woman/Sunday Jam
TTITLE2=Rocket In My Pocket
TTITLE3=Spanish Moon/Skin It Back
TTITLE4=Dixie Chicken
TTITLE5=Feats Don't Faill Me Now
EXTD=
EXTT0=
EXTT1=
EXTT2=
EXTT3=
EXTT4=
EXTT5=
PLAYORDER=
